<?xml version="1.0" encoding="utf-8"?>
<svg xmlns="http://www.w3.org/2000/svg" viewBox="0 0 500 500" width="500px"
     height="500px">
    <path d="M 142.848 3.913 C 146.232 7.001 148.525 10.385 150.797 14.319 C 151.352 15.262 151.352 15.262 151.918 16.224 C 152.714 17.578 153.507 18.933 154.298 20.29 C 156.412 23.916 158.546 27.531 160.676 31.147 C 161.109 31.883 161.542 32.62 161.988 33.378 C 166.189 40.513 170.477 47.593 174.786 54.663 C 175.486 55.813 176.186 56.964 176.886 58.115 C 179.504 62.421 182.125 66.726 184.747 71.029 C 186.473 73.862 188.192 76.7 189.911 79.538 C 190.671 80.782 190.671 80.782 191.447 82.052 C 191.901 82.803 192.354 83.553 192.821 84.327 C 193.215 84.976 193.61 85.625 194.016 86.294 C 194.848 87.913 194.848 87.913 194.848 89.913 C 195.41 89.755 195.972 89.598 196.551 89.436 C 198.943 88.891 201.147 88.639 203.598 88.538 C 204.397 88.489 205.196 88.44 206.02 88.389 C 211.749 89.45 215.449 91.968 218.862 96.713 C 220.914 100.105 222.842 103.549 224.723 107.038 C 225.39 108.243 226.06 109.447 226.731 110.651 C 227.954 112.85 229.168 115.054 230.371 117.265 C 231.86 120.017 231.86 120.017 233.848 122.913 C 235.147 122.686 236.447 122.459 237.786 122.225 C 243.022 121.682 247.252 122.249 251.848 124.913 C 254.327 127.312 256.066 129.971 257.848 132.913 C 258.409 133.819 258.969 134.725 259.547 135.659 C 261.009 138.061 262.441 140.477 263.848 142.913 C 264.441 142.754 265.034 142.595 265.645 142.432 C 271.169 141.129 275.858 141.592 280.765 144.375 C 287.975 149.698 292.203 159.836 296.411 167.538 C 301.109 176.032 305.875 184.476 310.786 192.85 C 315.647 201.146 320.484 209.456 325.286 217.788 C 325.908 218.868 326.531 219.948 327.172 221.061 C 328.434 223.251 329.695 225.44 330.957 227.63 C 334.705 234.136 338.459 240.639 342.212 247.142 C 345.401 252.67 348.589 258.199 351.774 263.729 C 353.069 265.978 354.365 268.226 355.661 270.475 C 356.281 271.553 356.902 272.632 357.542 273.743 C 360.339 278.595 363.149 283.438 366.012 288.252 C 366.485 289.049 366.959 289.846 367.446 290.666 C 368.312 292.119 369.182 293.569 370.056 295.016 C 372.848 299.695 372.848 299.695 372.848 301.913 C 374.155 301.155 374.155 301.155 375.489 300.381 C 384.204 295.54 391.284 292.986 401.348 295.549 C 408.021 298.04 412.567 302.724 415.946 308.928 C 418.935 315.992 418.503 322.665 415.883 329.745 C 412.731 336.347 407.35 340.735 400.848 343.913 C 400.188 343.913 399.528 343.913 398.848 343.913 C 399.246 344.709 399.645 345.506 400.055 346.327 C 401.653 349.522 403.25 352.717 404.848 355.913 C 405.401 356.941 405.954 357.97 406.524 359.03 C 408.89 364.181 408.555 368.87 406.723 374.163 C 403.687 378.616 399.863 381.791 394.848 383.913 C 396.446 390.001 399.709 394.979 402.973 400.288 C 403.536 401.214 404.1 402.141 404.68 403.096 C 406.064 405.372 407.453 407.644 408.848 409.913 C 409.645 409.514 410.441 409.116 411.262 408.706 C 414.457 407.108 417.653 405.51 420.848 403.913 C 421.872 403.37 422.895 402.827 423.95 402.268 C 430.681 399.12 437.514 399.356 444.457 401.78 C 451.041 404.899 455.617 409.647 458.227 416.456 C 460.048 423.66 459.661 431.419 455.848 437.913 C 451.858 443.595 447.153 446.469 441.161 449.85 C 440.198 450.406 439.235 450.962 438.244 451.534 C 436.18 452.724 434.113 453.909 432.044 455.089 C 428.866 456.902 425.698 458.731 422.532 460.565 C 418.201 463.073 413.866 465.574 409.528 468.069 C 405.009 470.668 400.493 473.272 395.981 475.881 C 376.656 487.055 376.656 487.055 367.411 492.288 C 366.772 492.651 366.134 493.014 365.476 493.389 C 358.585 497.268 352.675 497.679 344.848 496.913 C 337.435 494.751 332.6 490.606 328.848 483.913 C 325.876 477.608 325.639 470.772 327.723 464.12 C 332.528 453.671 341.103 449.321 350.848 443.913 C 349.566 440.523 348.098 437.451 346.246 434.338 C 345.757 433.506 345.267 432.674 344.762 431.817 C 343.729 430.077 342.695 428.337 341.661 426.598 C 341.173 425.77 340.686 424.942 340.184 424.088 C 339.736 423.335 339.288 422.581 338.826 421.804 C 337.848 419.913 337.848 419.913 337.848 417.913 C 337.158 418.274 336.469 418.634 335.758 419.006 C 329.678 422.009 324.666 424.113 317.848 422.913 C 309.287 419.949 304.858 411.575 300.848 403.913 C 300.848 403.253 300.848 402.593 300.848 401.913 C 300.06 402.346 299.273 402.779 298.461 403.225 C 289.56 407.776 281.838 410.027 272.02 407.057 C 264.776 403.88 260.831 399.059 257.473 392.038 C 255.993 384.639 256.142 377.613 259.848 370.913 C 263.353 365.719 267.225 362.616 272.848 359.913 C 273.508 359.913 274.168 359.913 274.848 359.913 C 270.124 350.042 264.845 340.637 259.238 331.247 C 256.711 327.002 254.213 322.741 251.723 318.475 C 250.995 317.24 250.995 317.24 250.251 315.98 C 249.806 315.217 249.361 314.453 248.903 313.666 C 248.307 312.65 248.307 312.65 247.699 311.614 C 246.848 309.913 246.848 309.913 246.848 307.913 C 248.828 306.593 250.808 305.273 252.848 303.913 C 250.208 299.623 247.568 295.333 244.848 290.913 C 243.858 291.243 240.77 291.734 239.75 292.074 C 240.225 306.924 240.705 321.533 240.848 336.913 C 243.488 336.913 246.128 336.913 248.848 336.913 C 248.942 353.429 249.012 369.945 249.055 386.462 C 249.076 394.132 249.104 401.801 249.15 409.471 C 249.19 416.159 249.215 422.847 249.224 429.535 C 249.23 433.074 249.242 436.612 249.271 440.15 C 249.303 444.109 249.304 448.068 249.302 452.027 C 249.316 453.188 249.331 454.349 249.346 455.545 C 249.297 465.11 247.206 473.256 240.551 480.381 C 234.103 486.179 227.105 489.154 218.392 489.18 C 216.472 489.193 216.472 489.193 214.514 489.206 C 213.108 489.205 211.702 489.204 210.296 489.203 C 208.806 489.209 207.316 489.216 205.825 489.223 C 201.786 489.241 197.746 489.246 193.707 489.247 C 191.179 489.249 188.651 489.253 186.123 489.258 C 177.292 489.277 168.462 489.285 159.631 489.283 C 151.419 489.282 143.208 489.303 134.997 489.335 C 127.931 489.361 120.866 489.372 113.801 489.37 C 109.588 489.37 105.375 489.375 101.163 489.397 C 97.196 489.416 93.229 489.416 89.262 489.402 C 87.814 489.4 86.365 489.404 84.917 489.416 C 71.762 489.52 61.539 487.164 51.848 477.913 C 43.032 468.678 40.202 458.676 40.457 446.12 C 40.466 444.512 40.466 444.512 40.475 442.871 C 40.497 439.489 40.547 436.107 40.598 432.725 C 40.618 430.415 40.636 428.104 40.653 425.793 C 40.696 420.166 40.763 414.539 40.848 408.913 C 43.488 408.913 46.128 408.913 48.848 408.913 C 48.848 403.633 48.848 398.353 48.848 392.913 C 46.208 392.913 43.568 392.913 40.848 392.913 C 40.848 350.673 40.848 308.433 40.848 264.913 C 38.868 264.913 36.888 264.913 34.848 264.913 C 30.023 262.404 27.451 259.654 24.848 254.913 C 24.464 251.98 24.285 249.437 24.317 246.514 C 24.313 245.72 24.309 244.927 24.305 244.109 C 24.302 242.436 24.31 240.764 24.327 239.091 C 24.348 236.552 24.327 234.015 24.301 231.475 C 24.304 229.842 24.309 228.209 24.317 226.577 C 24.309 225.827 24.301 225.078 24.292 224.306 C 24.407 217.77 26.494 212.598 30.813 207.67 C 31.464 207.132 32.115 206.593 32.786 206.038 C 33.434 205.483 34.082 204.929 34.75 204.358 C 38.808 201.562 42.378 200.662 47.271 200.672 C 48.346 200.669 49.422 200.667 50.53 200.664 C 52.284 200.675 52.284 200.675 54.074 200.686 C 55.313 200.685 56.553 200.685 57.83 200.685 C 61.22 200.686 64.61 200.696 68 200.71 C 71.546 200.722 75.092 200.723 78.638 200.726 C 85.349 200.732 92.061 200.748 98.772 200.769 C 106.414 200.791 114.056 200.802 121.698 200.812 C 137.415 200.833 153.131 200.868 168.848 200.913 C 168.848 203.553 168.848 206.193 168.848 208.913 C 165.998 229.665 209.539 230.454 187.848 207.913 C 186.858 205.438 186.858 205.438 185.848 202.913 C 185.086 197.224 185.696 192.816 188.848 187.913 C 190.536 186.038 190.536 186.038 191.848 184.913 C 190.712 180.709 188.948 177.362 186.723 173.663 C 183.748 168.296 182.605 163.984 183.848 157.913 C 185.194 154.661 187.128 151.931 189.156 149.061 C 190.129 146.82 190.129 146.82 188.822 144.319 C 188.237 143.36 187.653 142.401 187.051 141.413 C 186.422 140.361 185.793 139.309 185.145 138.225 C 184.469 137.132 183.794 136.039 183.098 134.913 C 181.79 132.746 180.483 130.58 179.176 128.413 C 178.587 127.454 177.999 126.494 177.392 125.506 C 173.79 119.456 173.01 114.982 173.848 107.913 C 175.099 104.531 176.503 101.585 179.848 99.913 C 178.348 95.809 176.335 92.142 174.094 88.409 C 173.721 87.781 173.349 87.154 172.965 86.508 C 171.742 84.453 170.514 82.402 169.286 80.35 C 168.428 78.913 167.572 77.476 166.715 76.039 C 161.155 66.721 155.547 57.434 149.911 48.163 C 149.388 47.303 149.388 47.303 148.856 46.426 C 145.287 40.555 141.711 34.689 138.121 28.831 C 137.009 27.004 135.897 25.177 134.786 23.35 C 134.278 22.529 133.771 21.707 133.249 20.861 C 132.569 19.74 132.569 19.74 131.875 18.596 C 131.284 17.63 131.284 17.63 130.68 16.645 C 129.848 14.913 129.848 14.913 129.848 11.913 C 131.996 10.37 134.066 9.037 136.348 7.725 C 136.968 7.357 137.588 6.989 138.227 6.61 C 139.761 5.701 141.304 4.805 142.848 3.913 Z"
          fill="#E5E6E7"/>
    <path d="M 142.848 3.913 C 146.232 7.001 148.525 10.385 150.797 14.319 C 151.167 14.947 151.537 15.576 151.918 16.224 C 152.714 17.578 153.507 18.933 154.298 20.29 C 156.412 23.916 158.546 27.531 160.676 31.147 C 161.109 31.883 161.542 32.62 161.988 33.378 C 166.189 40.513 170.477 47.593 174.786 54.663 C 175.486 55.813 176.186 56.964 176.886 58.115 C 179.504 62.421 182.125 66.726 184.747 71.029 C 186.473 73.862 188.192 76.7 189.911 79.538 C 190.418 80.367 190.925 81.197 191.447 82.052 C 191.901 82.803 192.354 83.553 192.821 84.327 C 193.215 84.976 193.61 85.625 194.016 86.294 C 194.848 87.913 194.848 87.913 194.848 89.913 C 195.41 89.755 195.972 89.598 196.551 89.436 C 198.943 88.891 201.147 88.639 203.598 88.538 C 204.397 88.489 205.196 88.44 206.02 88.389 C 211.749 89.45 215.449 91.968 218.862 96.713 C 220.914 100.105 222.842 103.549 224.723 107.038 C 225.39 108.243 226.06 109.447 226.731 110.651 C 227.954 112.85 229.168 115.054 230.371 117.265 C 231.86 120.017 231.86 120.017 233.848 122.913 C 235.147 122.686 236.447 122.459 237.786 122.225 C 243.022 121.682 247.252 122.249 251.848 124.913 C 254.327 127.312 256.066 129.971 257.848 132.913 C 258.409 133.819 258.969 134.725 259.547 135.659 C 261.009 138.061 262.441 140.477 263.848 142.913 C 264.441 142.754 265.034 142.595 265.645 142.432 C 271.169 141.129 275.858 141.592 280.765 144.375 C 287.975 149.698 292.203 159.836 296.411 167.538 C 301.109 176.032 305.875 184.476 310.786 192.85 C 315.647 201.146 320.484 209.456 325.286 217.788 C 325.908 218.868 326.531 219.948 327.172 221.061 C 328.434 223.251 329.695 225.44 330.957 227.63 C 334.705 234.136 338.459 240.639 342.212 247.142 C 345.401 252.67 348.589 258.199 351.774 263.729 C 353.069 265.978 354.365 268.226 355.661 270.475 C 356.281 271.553 356.902 272.632 357.542 273.743 C 360.339 278.595 363.149 283.438 366.012 288.252 C 366.485 289.049 366.959 289.846 367.446 290.666 C 368.312 292.119 369.182 293.569 370.056 295.016 C 372.848 299.695 372.848 299.695 372.848 301.913 C 374.155 301.155 374.155 301.155 375.489 300.381 C 384.204 295.54 391.284 292.986 401.348 295.549 C 408.021 298.04 412.567 302.724 415.946 308.928 C 418.935 315.992 418.503 322.665 415.883 329.745 C 412.731 336.347 407.35 340.735 400.848 343.913 C 400.188 343.913 399.528 343.913 398.848 343.913 C 399.246 344.709 399.645 345.506 400.055 346.327 C 401.653 349.522 403.25 352.717 404.848 355.913 C 405.401 356.941 405.954 357.97 406.524 359.03 C 408.89 364.181 408.555 368.87 406.723 374.163 C 403.687 378.616 399.863 381.791 394.848 383.913 C 396.446 390.001 399.709 394.979 402.973 400.288 C 403.536 401.214 404.1 402.141 404.68 403.096 C 406.064 405.372 407.453 407.644 408.848 409.913 C 409.645 409.514 410.441 409.116 411.262 408.706 C 414.457 407.108 417.653 405.51 420.848 403.913 C 421.872 403.37 422.895 402.827 423.95 402.268 C 430.681 399.12 437.514 399.356 444.457 401.78 C 451.041 404.899 455.617 409.647 458.227 416.456 C 460.048 423.66 459.661 431.419 455.848 437.913 C 451.858 443.595 447.153 446.469 441.161 449.85 C 440.198 450.406 439.235 450.962 438.244 451.534 C 436.18 452.724 434.113 453.909 432.044 455.089 C 428.866 456.902 425.698 458.731 422.532 460.565 C 418.201 463.073 413.866 465.574 409.528 468.069 C 405.009 470.668 400.493 473.272 395.981 475.881 C 376.656 487.055 376.656 487.055 367.411 492.288 C 366.772 492.651 366.134 493.014 365.476 493.389 C 358.585 497.268 352.675 497.679 344.848 496.913 C 337.435 494.751 332.6 490.606 328.848 483.913 C 325.876 477.608 325.639 470.772 327.723 464.12 C 332.528 453.671 341.103 449.321 350.848 443.913 C 349.566 440.523 348.098 437.451 346.246 434.338 C 345.757 433.506 345.267 432.674 344.762 431.817 C 343.729 430.077 342.695 428.337 341.661 426.598 C 341.173 425.77 340.686 424.942 340.184 424.088 C 339.736 423.335 339.288 422.581 338.826 421.804 C 337.848 419.913 337.848 419.913 337.848 417.913 C 337.158 418.274 336.469 418.634 335.758 419.006 C 329.678 422.009 324.666 424.113 317.848 422.913 C 309.287 419.949 304.858 411.575 300.848 403.913 C 300.848 403.253 300.848 402.593 300.848 401.913 C 300.06 402.346 299.273 402.779 298.461 403.225 C 289.56 407.776 281.838 410.027 272.02 407.057 C 264.776 403.88 260.831 399.059 257.473 392.038 C 255.993 384.639 256.142 377.613 259.848 370.913 C 263.353 365.719 267.225 362.616 272.848 359.913 C 273.508 359.913 274.168 359.913 274.848 359.913 C 270.124 350.042 264.845 340.637 259.238 331.247 C 256.711 327.002 254.213 322.741 251.723 318.475 C 250.995 317.24 250.995 317.24 250.251 315.98 C 249.806 315.217 249.361 314.453 248.903 313.666 C 248.307 312.65 248.307 312.65 247.699 311.614 C 246.848 309.913 246.848 309.913 246.848 307.913 C 248.828 306.593 250.808 305.273 252.848 303.913 C 250.208 299.623 247.568 295.333 244.848 290.913 C 242.538 291.573 240.228 292.233 237.848 292.913 C 237.467 292.251 191.774 213.117 187.994 207.715 C 185.257 203.41 185.368 198.837 185.848 193.913 C 187.286 190.215 188.828 187.501 191.848 184.913 C 190.712 180.709 188.948 177.362 186.723 173.663 C 183.748 168.296 182.605 163.984 183.848 157.913 C 185.194 154.661 187.128 151.931 189.156 149.061 C 190.129 146.82 190.129 146.82 188.822 144.319 C 188.237 143.36 187.653 142.401 187.051 141.413 C 186.422 140.361 185.793 139.309 185.145 138.225 C 184.469 137.132 183.794 136.039 183.098 134.913 C 181.79 132.746 180.483 130.58 179.176 128.413 C 178.587 127.454 177.999 126.494 177.392 125.506 C 173.79 119.456 173.01 114.982 173.848 107.913 C 175.099 104.531 176.503 101.585 179.848 99.913 C 178.348 95.809 176.335 92.142 174.094 88.409 C 173.721 87.781 173.349 87.154 172.965 86.508 C 171.742 84.453 170.514 82.402 169.286 80.35 C 168.428 78.913 167.572 77.476 166.715 76.039 C 161.155 66.721 155.547 57.434 149.911 48.163 C 149.562 47.59 149.214 47.017 148.856 46.426 C 145.287 40.555 141.711 34.689 138.121 28.831 C 137.009 27.004 135.897 25.177 134.786 23.35 C 134.278 22.529 133.771 21.707 133.249 20.861 C 132.569 19.74 132.569 19.74 131.875 18.596 C 131.481 17.952 131.086 17.308 130.68 16.645 C 129.848 14.913 129.848 14.913 129.848 11.913 C 131.996 10.37 134.066 9.037 136.348 7.725 C 136.968 7.357 137.588 6.989 138.227 6.61 C 139.761 5.701 141.304 4.805 142.848 3.913 Z"
          fill="#010101"/>
    <path d="M 368.848 8.913 C 379.408 8.913 389.968 8.913 400.848 8.913 C 400.848 14.193 400.848 19.473 400.848 24.913 C 398.208 24.913 395.568 24.913 392.848 24.913 C 392.848 30.193 392.848 35.473 392.848 40.913 C 394.89 41.191 394.89 41.191 396.973 41.475 C 402.569 42.538 407.133 44.883 412.024 47.7 C 415.35 49.605 415.35 49.605 419.028 49.342 C 421.035 47.766 422.827 46.127 424.598 44.288 C 425.518 43.34 425.518 43.34 426.457 42.374 C 426.916 41.891 427.375 41.409 427.848 40.913 C 425.868 38.438 425.868 38.438 423.848 35.913 C 425.384 32.232 427.63 29.925 430.473 27.163 C 431.699 25.964 431.699 25.964 432.95 24.741 C 433.576 24.137 434.203 23.534 434.848 22.913 C 438.516 24.452 440.834 26.667 443.614 29.483 C 444.503 30.379 445.393 31.275 446.309 32.198 C 447.229 33.135 448.15 34.072 449.098 35.038 C 450.043 35.992 450.988 36.947 451.934 37.901 C 454.243 40.234 456.548 42.571 458.848 44.913 C 457.152 48.546 455.11 50.858 452.223 53.663 C 450.997 54.861 450.997 54.861 449.746 56.084 C 449.12 56.688 448.493 57.291 447.848 57.913 C 445.354 56.709 443.167 55.458 440.848 53.913 C 437.878 56.883 434.908 59.853 431.848 62.913 C 433.25 66.418 434.709 69.717 436.348 73.1 C 438.763 78.343 439.941 83.223 440.848 88.913 C 446.128 88.913 451.408 88.913 456.848 88.913 C 456.848 86.273 456.848 83.633 456.848 80.913 C 462.128 80.913 467.408 80.913 472.848 80.913 C 472.848 91.473 472.848 102.033 472.848 112.913 C 467.568 112.913 462.288 112.913 456.848 112.913 C 456.848 110.273 456.848 107.633 456.848 104.913 C 451.568 104.913 446.288 104.913 440.848 104.913 C 440.662 106.274 440.477 107.635 440.286 109.038 C 439.222 114.633 436.877 119.198 434.061 124.089 C 432.156 127.415 432.156 127.415 432.418 131.092 C 433.995 133.1 435.634 134.891 437.473 136.663 C 438.105 137.276 438.736 137.89 439.387 138.522 C 439.869 138.981 440.351 139.44 440.848 139.913 C 443.323 137.933 443.323 137.933 445.848 135.913 C 449.529 137.449 451.836 139.694 454.598 142.538 C 455.797 143.763 455.797 143.763 457.02 145.014 C 457.623 145.641 458.226 146.267 458.848 146.913 C 457.309 150.58 455.093 152.898 452.278 155.678 C 451.382 156.568 450.486 157.457 449.563 158.374 C 448.157 159.754 448.157 159.754 446.723 161.163 C 445.768 162.107 444.814 163.053 443.86 163.999 C 441.527 166.308 439.19 168.612 436.848 170.913 C 433.215 169.217 430.903 167.175 428.098 164.288 C 426.899 163.062 426.899 163.062 425.676 161.811 C 425.073 161.185 424.47 160.558 423.848 159.913 C 425.052 157.419 426.302 155.231 427.848 152.913 C 424.878 149.943 421.908 146.973 418.848 143.913 C 415.342 145.315 412.044 146.773 408.661 148.413 C 403.417 150.828 398.537 152.006 392.848 152.913 C 392.848 158.193 392.848 163.473 392.848 168.913 C 395.488 168.913 398.128 168.913 400.848 168.913 C 400.848 174.193 400.848 179.473 400.848 184.913 C 390.288 184.913 379.728 184.913 368.848 184.913 C 368.848 179.633 368.848 174.353 368.848 168.913 C 371.488 168.913 374.128 168.913 376.848 168.913 C 376.848 163.633 376.848 158.353 376.848 152.913 C 375.487 152.727 374.126 152.541 372.723 152.35 C 367.127 151.287 362.563 148.942 357.672 146.125 C 354.346 144.221 354.346 144.221 350.668 144.483 C 348.661 146.06 346.869 147.698 345.098 149.538 C 344.484 150.169 343.871 150.801 343.239 151.452 C 342.55 152.175 342.55 152.175 341.848 152.913 C 343.828 155.388 343.828 155.388 345.848 157.913 C 344.312 161.593 342.066 163.9 339.223 166.663 C 337.997 167.861 337.997 167.861 336.746 169.084 C 336.12 169.688 335.493 170.291 334.848 170.913 C 331.18 169.373 328.862 167.158 326.082 164.342 C 325.193 163.446 324.303 162.55 323.387 161.627 C 322.467 160.69 321.546 159.753 320.598 158.788 C 319.653 157.833 318.708 156.878 317.762 155.924 C 315.453 153.591 313.148 151.254 310.848 148.913 C 312.544 145.28 314.586 142.967 317.473 140.163 C 318.29 139.363 319.108 138.564 319.95 137.741 C 320.576 137.137 321.203 136.534 321.848 135.913 C 324.342 137.116 326.529 138.367 328.848 139.913 C 331.818 136.943 334.788 133.973 337.848 130.913 C 336.446 127.407 334.987 124.109 333.348 120.725 C 330.933 115.482 329.755 110.602 328.848 104.913 C 323.568 104.913 318.288 104.913 312.848 104.913 C 312.848 107.553 312.848 110.193 312.848 112.913 C 307.568 112.913 302.288 112.913 296.848 112.913 C 296.848 102.353 296.848 91.793 296.848 80.913 C 302.128 80.913 307.408 80.913 312.848 80.913 C 312.848 83.553 312.848 86.193 312.848 88.913 C 318.128 88.913 323.408 88.913 328.848 88.913 C 329.126 86.871 329.126 86.871 329.411 84.788 C 330.474 79.192 332.819 74.627 335.635 69.736 C 337.54 66.41 337.54 66.41 337.278 62.733 C 335.701 60.725 334.062 58.934 332.223 57.163 C 331.591 56.549 330.96 55.935 330.309 55.303 C 329.827 54.844 329.345 54.385 328.848 53.913 C 327.198 55.233 325.548 56.553 323.848 57.913 C 320.167 56.376 317.86 54.131 315.098 51.288 C 314.299 50.47 313.5 49.653 312.676 48.811 C 312.073 48.185 311.47 47.558 310.848 46.913 C 312.387 43.245 314.603 40.927 317.418 38.147 C 318.314 37.257 319.21 36.368 320.133 35.452 C 321.07 34.531 322.007 33.611 322.973 32.663 C 323.928 31.718 324.882 30.772 325.836 29.827 C 328.169 27.517 330.506 25.213 332.848 22.913 C 336.481 24.608 338.793 26.651 341.598 29.538 C 342.797 30.763 342.797 30.763 344.02 32.014 C 344.623 32.641 345.226 33.267 345.848 33.913 C 344.644 36.406 343.394 38.594 341.848 40.913 C 344.818 43.883 347.788 46.853 350.848 49.913 C 354.354 48.51 357.652 47.052 361.036 45.413 C 366.279 42.997 371.159 41.82 376.848 40.913 C 376.848 35.633 376.848 30.353 376.848 24.913 C 374.208 24.913 371.568 24.913 368.848 24.913 C 368.848 19.633 368.848 14.353 368.848 8.913 Z"
          fill="#000000"/>
    <path d="M 232.848 336.913 C 238.128 336.913 243.408 336.913 248.848 336.913 C 248.941 353.429 249.012 369.946 249.055 386.462 C 249.076 394.132 249.104 401.802 249.15 409.471 C 249.19 416.159 249.215 422.848 249.224 429.536 C 249.23 433.074 249.242 436.612 249.271 440.151 C 249.303 444.11 249.304 448.069 249.302 452.028 C 249.316 453.189 249.331 454.35 249.346 455.546 C 249.297 465.111 247.206 473.256 240.551 480.382 C 234.103 486.18 227.105 489.154 218.392 489.18 C 216.472 489.193 216.472 489.193 214.514 489.206 C 213.108 489.206 211.702 489.205 210.296 489.204 C 208.806 489.21 207.316 489.216 205.825 489.224 C 201.786 489.242 197.746 489.246 193.707 489.248 C 191.179 489.249 188.651 489.253 186.123 489.259 C 177.292 489.277 168.462 489.285 159.631 489.284 C 151.419 489.282 143.208 489.303 134.997 489.335 C 127.931 489.361 120.866 489.372 113.801 489.371 C 109.588 489.37 105.375 489.376 101.163 489.397 C 97.196 489.417 93.229 489.416 89.262 489.402 C 87.814 489.4 86.365 489.405 84.917 489.417 C 71.762 489.52 61.539 487.164 51.848 477.913 C 43.032 468.678 40.202 458.677 40.457 446.12 C 40.463 445.048 40.469 443.976 40.475 442.871 C 40.497 439.489 40.547 436.108 40.598 432.726 C 40.618 430.415 40.636 428.104 40.653 425.794 C 40.696 420.166 40.765 414.54 40.848 408.913 C 46.128 408.913 51.408 408.913 56.848 408.913 C 56.848 414.193 56.848 419.473 56.848 424.913 C 114.928 424.913 173.008 424.913 232.848 424.913 C 232.848 395.873 232.848 366.833 232.848 336.913 Z"
          fill="#000000"/>
    <path d="M 269.848 158.913 C 273.765 160.219 274.166 161.714 276.098 165.288 C 276.639 166.265 277.181 167.242 277.739 168.249 C 278.848 170.913 278.848 170.913 277.848 173.913 C 275.244 175.691 275.244 175.691 271.801 177.636 C 270.889 178.155 270.889 178.155 269.958 178.685 C 268.669 179.416 267.378 180.143 266.084 180.865 C 264.115 181.966 262.153 183.08 260.192 184.196 C 249.8 190.074 249.8 190.074 244.848 191.913 C 245.353 192.756 245.859 193.599 246.379 194.468 C 247.354 196.111 247.354 196.111 248.348 197.788 C 249.323 199.424 249.323 199.424 250.317 201.093 C 251.848 203.913 251.848 203.913 251.848 205.913 C 257.561 202.836 263.238 199.71 268.848 196.448 C 270.331 195.591 270.331 195.591 271.844 194.716 C 273.882 193.535 275.916 192.347 277.946 191.153 C 278.924 190.591 279.902 190.028 280.911 189.448 C 281.788 188.936 282.666 188.425 283.571 187.898 C 285.848 186.913 285.848 186.913 288.848 187.913 C 290.453 190.093 290.453 190.093 292.036 192.788 C 292.565 193.672 293.095 194.557 293.641 195.468 C 294.848 197.913 294.848 197.913 294.848 200.913 C 293.104 202.263 293.104 202.263 290.692 203.612 C 289.835 204.099 288.977 204.585 288.094 205.087 C 287.188 205.586 286.282 206.086 285.348 206.601 C 284.442 207.112 283.536 207.623 282.602 208.149 C 280.356 209.414 278.105 210.668 275.848 211.913 C 276.281 212.756 276.714 213.599 277.161 214.468 C 277.717 215.563 278.274 216.659 278.848 217.788 C 279.405 218.879 279.962 219.969 280.536 221.093 C 281.848 223.913 281.848 223.913 281.848 225.913 C 292.243 219.973 292.243 219.973 302.848 213.913 C 305.406 216.471 306.821 218.323 308.536 221.413 C 308.972 222.186 309.409 222.96 309.86 223.757 C 310.848 225.913 310.848 225.913 310.848 228.913 C 310.204 229.275 309.559 229.638 308.895 230.011 C 305.92 231.685 302.947 233.362 299.973 235.038 C 298.453 235.893 298.453 235.893 296.903 236.765 C 290.489 240.382 284.14 244.088 277.848 247.913 C 278.281 248.684 278.714 249.455 279.161 250.249 C 279.717 251.252 280.274 252.255 280.848 253.288 C 281.405 254.286 281.962 255.283 282.536 256.311 C 283.848 258.913 283.848 258.913 283.848 260.913 C 293.356 256.442 302.303 251.359 311.181 245.738 C 312.003 245.229 312.825 244.719 313.672 244.194 C 314.405 243.731 315.138 243.267 315.894 242.79 C 317.848 241.913 317.848 241.913 320.848 242.913 C 322.524 245.276 322.524 245.276 324.161 248.226 C 324.714 249.191 325.267 250.157 325.836 251.151 C 326.848 253.913 326.848 253.913 326.138 255.938 C 324.685 258.163 323.536 259 321.223 260.272 C 320.517 260.666 319.81 261.059 319.082 261.464 C 318.345 261.86 317.608 262.255 316.848 262.663 C 316.111 263.074 315.373 263.485 314.614 263.909 C 309.145 266.913 309.145 266.913 306.848 266.913 C 307.353 267.756 307.859 268.599 308.379 269.468 C 309.354 271.111 309.354 271.111 310.348 272.788 C 311.323 274.424 311.323 274.424 312.317 276.093 C 313.848 278.913 313.848 278.913 313.848 280.913 C 315.494 280.018 317.14 279.122 318.786 278.226 C 319.785 277.684 320.784 277.143 321.813 276.585 C 323.715 275.537 325.605 274.467 327.477 273.366 C 328.259 272.907 329.042 272.448 329.848 271.976 C 330.9 271.343 330.9 271.343 331.973 270.698 C 333.848 269.913 333.848 269.913 336.848 270.913 C 338.489 273.058 338.489 273.058 340.098 275.726 C 340.91 277.035 340.91 277.035 341.739 278.37 C 342.848 280.913 342.848 280.913 342.639 282.928 C 341.631 285.457 340.692 285.954 338.305 287.21 C 337.567 287.608 336.829 288.006 336.068 288.415 C 335.274 288.827 334.479 289.239 333.661 289.663 C 332.023 290.54 330.387 291.417 328.75 292.296 C 327.929 292.732 327.108 293.168 326.262 293.617 C 322.71 295.524 319.215 297.524 315.723 299.538 C 314.586 300.19 313.449 300.843 312.278 301.515 C 311.476 301.976 310.674 302.438 309.848 302.913 C 310.799 304.896 311.759 306.874 312.723 308.851 C 313.257 309.953 313.79 311.055 314.34 312.19 C 315.565 315.007 315.565 315.007 317.848 315.913 C 320.366 314.799 320.366 314.799 323.196 313.124 C 324.277 312.512 325.357 311.899 326.471 311.268 C 327.606 310.615 328.741 309.961 329.911 309.288 C 332.131 308.025 334.351 306.762 336.571 305.499 C 337.634 304.89 338.698 304.281 339.794 303.654 C 343.794 301.374 347.816 299.136 351.848 296.913 C 353.023 298.846 354.187 300.784 355.348 302.726 C 355.998 303.804 356.647 304.883 357.317 305.995 C 358.848 308.913 358.848 308.913 358.848 311.913 C 357.78 312.522 357.78 312.522 356.69 313.144 C 342.346 321.327 328.016 329.534 313.716 337.794 C 306.106 342.19 298.486 346.566 290.848 350.913 C 287.954 348.354 286.294 345.444 284.407 342.093 C 284.082 341.521 283.758 340.949 283.424 340.36 C 282.373 338.505 281.329 336.646 280.286 334.788 C 278.849 332.245 277.409 329.704 275.969 327.163 C 275.615 326.537 275.261 325.911 274.896 325.266 C 271.55 319.363 268.053 313.55 264.592 307.713 C 261.908 303.186 261.417 302.696 260.185 300.331 C 256.225 302.311 256.724 302.145 252.684 304.165 C 252.763 304.152 248.39 296.826 247.848 295.913 C 247.264 294.929 246.569 294.016 245.91 293.038 C 245.56 292.337 245.209 291.636 244.848 290.913 C 248.673 289.112 249.557 289.031 252.65 287.015 C 248.806 279.11 242.893 269.348 238.41 261.788 C 237.173 259.684 235.936 257.58 234.7 255.476 C 234.066 254.398 233.432 253.32 232.779 252.21 C 228.952 245.675 225.187 239.105 221.421 232.535 C 218.331 227.16 215.201 221.818 211.977 216.522 C 211.366 215.513 210.755 214.504 210.126 213.464 C 208.967 211.558 207.799 209.657 206.619 207.764 C 206.107 206.919 205.595 206.073 205.067 205.202 C 204.612 204.467 204.158 203.732 203.69 202.974 C 202.848 200.913 202.848 200.913 202.914 198.83 C 204.247 196.095 205.903 195.381 208.571 193.952 C 209.572 193.405 210.574 192.858 211.606 192.295 C 213.242 191.425 213.242 191.425 214.91 190.538 C 217.205 189.287 219.497 188.035 221.789 186.78 C 222.376 186.461 222.963 186.141 223.568 185.812 C 229.563 182.544 235.46 179.118 241.348 175.663 C 242.335 175.087 243.322 174.511 244.339 173.917 C 248.922 171.238 253.488 168.534 258.024 165.776 C 258.813 165.3 259.602 164.824 260.414 164.334 C 261.869 163.454 263.319 162.566 264.762 161.668 C 266.413 160.672 268.126 159.781 269.848 158.913 Z"
          fill="#E3E4E5" style="stroke-dashoffset: -17px;"/>
    <path d="M 47.271 200.672 C 48.346 200.669 49.422 200.667 50.53 200.664 C 52.284 200.674 52.284 200.674 54.074 200.685 C 55.314 200.685 56.553 200.685 57.83 200.685 C 61.22 200.686 64.61 200.696 68 200.71 C 71.546 200.722 75.092 200.723 78.639 200.726 C 85.35 200.732 92.061 200.748 98.772 200.768 C 106.414 200.791 114.056 200.802 121.698 200.812 C 137.415 200.833 153.132 200.868 168.848 200.913 C 168.848 206.193 168.848 211.473 168.848 216.913 C 166.55 216.918 166.55 216.918 164.206 216.924 C 149.785 216.96 135.364 217.018 120.944 217.096 C 113.53 217.136 106.116 217.169 98.701 217.184 C 92.239 217.197 85.778 217.223 79.316 217.267 C 75.894 217.29 72.472 217.305 69.05 217.304 C 65.231 217.307 61.413 217.334 57.593 217.367 C 56.458 217.362 55.322 217.357 54.152 217.351 C 52.591 217.372 52.591 217.372 50.999 217.394 C 50.096 217.397 49.192 217.401 48.261 217.405 C 45.216 217.816 45.216 217.816 41.848 221.913 C 41.518 230.823 41.188 239.733 40.848 248.913 C 91.008 248.913 141.168 248.913 192.848 248.913 C 192.848 254.193 192.848 259.473 192.848 264.913 C 147.968 264.913 103.088 264.913 56.848 264.913 C 56.848 270.193 56.848 275.473 56.848 280.913 C 109.648 280.913 162.448 280.913 216.848 280.913 C 216.848 286.193 216.848 291.473 216.848 296.913 C 164.048 296.913 111.248 296.913 56.848 296.913 C 56.848 328.593 56.848 360.273 56.848 392.913 C 51.568 392.913 46.288 392.913 40.848 392.913 C 40.848 350.673 40.848 308.433 40.848 264.913 C 38.868 264.913 36.888 264.913 34.848 264.913 C 30.023 262.404 27.451 259.654 24.848 254.913 C 24.464 251.98 24.286 249.437 24.317 246.514 C 24.313 245.72 24.309 244.926 24.305 244.109 C 24.303 242.436 24.31 240.764 24.327 239.091 C 24.348 236.552 24.327 234.015 24.301 231.475 C 24.304 229.842 24.309 228.209 24.317 226.577 C 24.309 225.827 24.301 225.078 24.293 224.306 C 24.407 217.77 26.495 212.598 30.813 207.67 C 31.464 207.131 32.115 206.593 32.786 206.038 C 33.434 205.483 34.083 204.929 34.751 204.358 C 38.808 201.562 42.378 200.662 47.271 200.672 Z"
          fill="#000000"/>
    <path d="M 168.848 216.913 C 170.079 217.059 193.398 217.138 194.053 217.023 C 197.246 222.801 208.489 240.921 209.856 242.972 C 214.297 249.636 217.847 256.851 221.848 263.788 C 222.446 264.826 223.045 265.864 223.661 266.934 C 224.238 267.935 224.816 268.936 225.411 269.968 C 225.97 270.938 226.529 271.908 227.106 272.908 C 229.569 277.157 232.064 281.388 234.563 285.617 C 235.848 287.913 235.848 287.913 235.848 288.913 C 229.578 288.913 223.308 288.913 216.848 288.913 C 216.848 286.273 216.848 283.633 216.848 280.913 C 164.048 280.913 111.248 280.913 56.848 280.913 C 56.848 275.633 56.848 270.353 56.848 264.913 C 101.728 264.913 146.608 264.913 192.848 264.913 C 192.848 259.633 192.848 254.353 192.848 248.913 C 142.688 248.913 92.528 248.913 40.848 248.913 C 40.848 221.913 40.848 221.913 45.848 216.913 C 48.384 216.298 48.384 216.298 51.119 216.312 C 52.161 216.305 53.202 216.298 54.276 216.291 C 55.974 216.318 55.974 216.318 57.707 216.345 C 58.907 216.345 60.107 216.344 61.344 216.343 C 64.627 216.346 67.909 216.371 71.192 216.406 C 74.626 216.437 78.06 216.44 81.494 216.446 C 87.993 216.462 94.491 216.503 100.99 216.553 C 108.39 216.609 115.79 216.636 123.191 216.661 C 138.41 216.714 153.629 216.802 168.848 216.913 Z"
          fill="#1D80CD"/>
    <path d="M 144.098 312.663 C 145.231 312.642 146.364 312.622 147.532 312.601 C 154.24 312.569 159.351 312.649 164.493 317.448 C 168.218 322.319 168.971 324.409 168.911 330.538 C 168.901 331.727 168.892 332.915 168.883 334.14 C 168.872 335.055 168.86 335.97 168.848 336.913 C 169.645 336.878 170.441 336.843 171.262 336.808 C 182.221 336.528 182.221 336.528 186.848 339.913 C 193.273 346.496 193.058 351.302 193.098 360.163 C 193.119 361.296 193.139 362.429 193.161 363.597 C 193.192 370.314 193.082 375.367 188.348 380.558 C 183.579 384.271 180.624 385.04 174.661 384.976 C 173.574 384.966 172.487 384.957 171.368 384.948 C 170.12 384.931 170.12 384.931 168.848 384.913 C 168.9 386.108 168.9 386.108 168.953 387.327 C 169.233 398.286 169.233 398.286 165.848 402.913 C 159.28 409.481 153.358 409.151 144.536 409.226 C 142.843 409.269 142.843 409.269 141.116 409.313 C 134.709 409.362 130.672 409.305 125.848 404.913 C 121.58 400.184 120.718 397.017 120.786 390.726 C 120.795 389.639 120.804 388.552 120.813 387.433 C 120.824 386.601 120.836 385.77 120.848 384.913 C 119.979 384.959 119.11 385.006 118.215 385.054 C 108.769 385.349 108.769 385.349 104.286 383.226 C 100.205 379.354 97.076 376.189 96.671 370.373 C 96.605 367.115 96.563 363.859 96.536 360.601 C 96.506 359.472 96.477 358.343 96.448 357.181 C 96.399 350.776 96.453 346.733 100.848 341.913 C 105.683 337.654 108.057 336.788 114.473 336.851 C 115.662 336.86 116.85 336.869 118.075 336.878 C 118.99 336.889 119.905 336.901 120.848 336.913 C 120.802 336.044 120.755 335.175 120.707 334.28 C 120.412 324.834 120.412 324.834 122.536 320.351 C 129.64 312.862 134.157 312.708 144.098 312.663 Z"
          fill="#020201"/>
    <path d="M 56.848 440.913 C 114.928 440.913 173.008 440.913 232.848 440.913 C 232.848 463.624 232.848 463.624 228.348 468.558 C 223.716 472.164 220.784 473.037 214.998 473.06 C 213.777 473.067 212.556 473.074 211.298 473.082 C 209.943 473.085 208.587 473.087 207.232 473.09 C 205.806 473.096 204.38 473.103 202.954 473.11 C 198.269 473.131 193.584 473.141 188.899 473.151 C 187.285 473.155 185.67 473.159 184.056 473.164 C 176.471 473.183 168.886 473.197 161.301 473.205 C 152.553 473.215 143.804 473.241 135.056 473.282 C 128.29 473.312 121.524 473.327 114.758 473.33 C 110.718 473.332 106.68 473.341 102.641 473.366 C 98.838 473.39 95.035 473.394 91.233 473.384 C 89.841 473.383 88.45 473.39 87.058 473.403 C 78.072 473.487 71.675 473.057 64.641 467.018 C 57.066 457.97 56.848 453.736 56.848 440.913 Z"
          fill="#59A9E6"/>
    <path d="M 405.278 62.233 C 415.537 68.554 421.504 77.483 424.848 88.912 C 426.181 100.701 423.607 112.305 416.528 121.92 C 408.848 131.029 398.835 136.068 386.938 137.186 C 375.23 137.563 365.508 133.834 356.848 125.912 C 348.71 117.887 344.595 108.144 344.473 96.662 C 344.68 84.339 349.01 75.844 357.575 67.162 C 371.107 54.804 389.414 53.612 405.278 62.233 Z"
          fill="#FD4F22"/>
    <path d="M 192.848 256.913 C 201.098 256.913 209.348 256.913 217.848 256.913 C 219.931 260.505 222.013 264.098 224.092 267.692 C 224.798 268.912 225.505 270.132 226.213 271.352 C 227.235 273.114 228.255 274.876 229.274 276.64 C 229.886 277.697 230.499 278.755 231.13 279.845 C 232.795 282.818 234.324 285.866 235.848 288.913 C 229.578 288.913 223.308 288.913 216.848 288.913 C 216.848 286.273 216.848 283.633 216.848 280.913 C 164.048 280.913 111.248 280.913 56.848 280.913 C 56.848 275.633 56.848 270.353 56.848 264.913 C 101.728 264.913 146.608 264.913 192.848 264.913 C 192.848 262.273 192.848 259.633 192.848 256.913 Z"
          fill="#3C99E1"/>
    <path d="M 394.848 311.913 C 398.171 314.369 399.624 315.839 400.473 319.913 C 399.659 323.82 397.883 325.517 394.848 327.913 C 391 330.386 387.025 332.615 383.036 334.851 C 381.866 335.514 380.697 336.178 379.529 336.843 C 377.731 337.866 375.933 338.889 374.133 339.909 C 368.381 343.168 362.675 346.505 356.973 349.851 C 347.171 355.584 337.322 361.231 327.457 366.855 C 317.029 372.802 306.629 378.798 296.235 384.804 C 295.3 385.343 294.365 385.881 293.402 386.437 C 291.818 387.352 290.238 388.272 288.661 389.2 C 282.533 392.786 282.533 392.786 278.848 391.913 C 275.277 389.294 274.02 387.787 273.161 383.413 C 274.057 378.847 276.183 377.436 279.848 374.913 C 283.481 372.687 287.175 370.579 290.893 368.499 C 293.404 367.095 295.906 365.677 298.41 364.259 C 299.694 363.532 300.979 362.806 302.263 362.08 C 308.199 358.725 314.091 355.298 319.973 351.851 C 332.566 344.482 345.205 337.196 357.848 329.913 C 362.044 327.495 366.24 325.077 370.436 322.657 C 372.119 321.687 373.803 320.717 375.486 319.747 C 376.509 319.157 377.532 318.568 378.586 317.96 C 379.484 317.443 380.381 316.925 381.306 316.392 C 383.052 315.376 384.779 314.328 386.489 313.254 C 389.585 311.494 391.339 311.328 394.848 311.913 Z"
          fill="#C2C1C6"/>
    <path d="M 136.848 328.913 C 142.128 328.913 147.408 328.913 152.848 328.913 C 152.897 330.166 152.946 331.419 152.996 332.71 C 153.071 334.361 153.147 336.012 153.223 337.663 C 153.254 338.488 153.285 339.313 153.317 340.163 C 153.375 341.362 153.375 341.362 153.434 342.585 C 153.465 343.318 153.497 344.051 153.529 344.807 C 153.892 347.201 154.584 348.853 155.848 350.913 C 158.141 352.06 159.647 352.11 162.2 352.229 C 163.05 352.271 163.901 352.313 164.778 352.356 C 165.667 352.396 166.557 352.435 167.473 352.476 C 168.37 352.519 169.267 352.562 170.192 352.606 C 172.41 352.713 174.629 352.813 176.848 352.913 C 176.848 358.193 176.848 363.473 176.848 368.913 C 174.86 368.952 174.86 368.952 172.832 368.991 C 171.088 369.047 169.343 369.105 167.598 369.163 C 166.725 369.177 165.853 369.191 164.953 369.206 C 161.233 369.348 158.564 369.512 155.286 371.351 C 153.06 375.318 153.171 379.184 153.098 383.663 C 153.054 384.995 153.054 384.995 153.008 386.354 C 152.938 388.54 152.891 390.727 152.848 392.913 C 147.568 392.913 142.288 392.913 136.848 392.913 C 136.799 391.576 136.75 390.239 136.7 388.862 C 136.625 387.108 136.549 385.354 136.473 383.601 C 136.442 382.719 136.411 381.838 136.379 380.931 C 136.341 380.083 136.302 379.235 136.262 378.362 C 136.215 377.192 136.215 377.192 136.167 375.998 C 135.952 373.611 135.952 373.611 133.848 370.913 C 131.189 370.027 129.367 369.733 126.618 369.597 C 125.815 369.555 125.013 369.513 124.186 369.47 C 123.353 369.43 122.519 369.391 121.661 369.351 C 120.393 369.286 120.393 369.286 119.1 369.22 C 117.016 369.114 114.932 369.013 112.848 368.913 C 112.848 363.633 112.848 358.353 112.848 352.913 C 114.101 352.864 115.354 352.815 116.645 352.765 C 118.296 352.69 119.947 352.614 121.598 352.538 C 122.423 352.507 123.248 352.476 124.098 352.444 C 125.297 352.386 125.297 352.386 126.52 352.327 C 127.62 352.28 127.62 352.28 128.742 352.232 C 131.163 351.865 132.793 351.245 134.848 349.913 C 135.734 347.254 136.028 345.432 136.164 342.683 C 136.206 341.88 136.248 341.078 136.291 340.251 C 136.331 339.418 136.37 338.584 136.411 337.726 C 136.454 336.881 136.497 336.036 136.541 335.165 C 136.647 333.081 136.748 330.997 136.848 328.913 Z"
          fill="#FE9710"/>
    <path d="M 436.848 416.913 C 439.723 418.413 439.723 418.413 441.848 420.913 C 442.874 425.808 442.874 425.808 441.848 428.913 C 436.718 434.34 429.087 437.797 422.653 441.402 C 419.524 443.155 416.406 444.926 413.286 446.694 C 412.654 447.051 412.023 447.408 411.372 447.776 C 405.498 451.101 399.67 454.5 393.848 457.913 C 391.912 459.039 389.976 460.166 388.039 461.292 C 384.111 463.58 380.199 465.895 376.298 468.23 C 373.756 469.747 371.205 471.249 368.652 472.747 C 367.42 473.475 366.192 474.21 364.968 474.952 C 363.26 475.987 361.537 476.995 359.813 478.003 C 358.829 478.589 357.846 479.176 356.832 479.78 C 353.086 481.202 350.711 480.803 346.848 479.913 C 344.911 478.851 344.911 478.851 343.848 476.913 C 343.237 471.418 343.237 471.418 343.848 468.913 C 346.691 465.671 349.706 463.652 353.45 461.55 C 354.566 460.918 355.683 460.286 356.833 459.635 C 357.426 459.304 358.018 458.973 358.628 458.632 C 360.507 457.582 362.38 456.524 364.253 455.464 C 366.847 453.997 369.442 452.531 372.038 451.068 C 377.746 447.845 383.423 444.568 389.098 441.288 C 390.151 440.68 391.204 440.072 392.289 439.446 C 410.515 429.088 410.515 429.088 428.462 418.264 C 431.55 416.516 433.348 416.403 436.848 416.913 Z"
          fill="#A9A8AE"/>
    <path d="M 56.848 272.913 C 78.857 272.562 100.866 272.298 122.877 272.136 C 133.098 272.059 143.317 271.953 153.537 271.781 C 162.447 271.632 171.355 271.535 180.266 271.502 C 184.983 271.482 189.697 271.436 194.413 271.327 C 198.857 271.225 203.297 271.194 207.742 271.216 C 209.369 271.212 210.996 271.183 212.621 271.125 C 217.747 270.952 222.029 271.038 226.848 272.913 C 230.787 277.202 232.139 283.018 235.848 287.913 C 235.848 288.243 235.848 288.573 235.848 288.913 C 229.578 288.913 223.308 288.913 216.848 288.913 C 216.848 286.273 216.848 283.633 216.848 280.913 C 164.048 280.913 111.248 280.913 56.848 280.913 C 56.848 278.273 56.848 275.633 56.848 272.913 Z"
          fill="#59A9E6"/>
    <path d="M 384.848 353.913 C 386.489 356.058 386.489 356.058 388.098 358.726 C 388.639 359.598 389.181 360.471 389.739 361.37 C 390.848 363.913 390.848 363.913 390.749 365.862 C 389.409 368.911 387.429 369.679 384.539 371.276 C 383.412 371.909 382.285 372.541 381.123 373.193 C 379.886 373.87 378.648 374.548 377.411 375.226 C 376.145 375.931 374.88 376.638 373.616 377.346 C 370.999 378.811 368.38 380.271 365.759 381.727 C 359.749 385.075 353.8 388.528 347.848 391.976 C 346.304 392.867 346.304 392.867 344.729 393.776 C 343.737 394.348 342.745 394.921 341.723 395.511 C 340.763 396.063 339.802 396.614 338.813 397.183 C 336.708 398.411 334.618 399.665 332.539 400.936 C 331.466 401.587 330.392 402.238 329.286 402.909 C 328.315 403.508 327.344 404.106 326.344 404.723 C 323.848 405.913 323.848 405.913 320.848 404.913 C 319.207 402.768 319.207 402.768 317.598 400.101 C 317.057 399.228 316.515 398.355 315.957 397.456 C 314.848 394.913 314.848 394.913 315.011 392.925 C 316.157 390.169 317.523 389.579 320.133 388.171 C 321.044 387.669 321.955 387.168 322.894 386.651 C 323.889 386.119 324.885 385.586 325.911 385.038 C 328.022 383.878 330.133 382.717 332.243 381.554 C 333.335 380.955 334.428 380.356 335.554 379.739 C 340.784 376.84 345.94 373.816 351.098 370.788 C 352.583 369.922 352.583 369.922 354.097 369.038 C 358.905 366.233 363.7 363.408 368.477 360.55 C 369.354 360.03 370.231 359.51 371.134 358.974 C 372.778 357.999 374.417 357.016 376.05 356.024 C 376.774 355.597 377.497 355.17 378.243 354.729 C 378.87 354.352 379.498 353.975 380.144 353.587 C 381.848 352.913 381.848 352.913 384.848 353.913 Z"
          fill="#E3E4E5"/>
    <path d="M 379.848 392.913 C 381.85 396.414 383.844 399.919 385.829 403.429 C 386.506 404.623 387.185 405.815 387.867 407.006 C 388.846 408.717 389.816 410.434 390.786 412.151 C 391.665 413.699 391.665 413.699 392.563 415.278 C 393.848 417.913 393.848 417.913 393.848 420.913 C 385.268 425.863 376.688 430.813 367.848 435.913 C 365.042 433.107 363.456 430.774 361.493 427.37 C 360.871 426.297 360.249 425.224 359.608 424.118 C 358.965 422.999 358.323 421.879 357.661 420.726 C 357.006 419.594 356.352 418.463 355.678 417.298 C 354.064 414.505 352.454 411.71 350.848 408.913 C 355.748 404.858 360.961 401.802 366.473 398.663 C 367.427 398.109 368.381 397.554 369.364 396.983 C 370.736 396.198 370.736 396.198 372.137 395.397 C 372.969 394.92 373.802 394.443 374.659 393.951 C 376.848 392.913 376.848 392.913 379.848 392.913 Z"
          fill="#C3C2C7"/>
    <path d="M 240.848 138.913 C 243.708 141.429 245.263 144.252 247.036 147.601 C 247.565 148.594 248.095 149.588 248.641 150.612 C 249.039 151.371 249.438 152.131 249.848 152.913 C 249.21 153.285 248.572 153.656 247.915 154.039 C 234.877 161.637 221.847 169.248 208.848 176.913 C 206.375 174.651 204.784 172.338 203.161 169.413 C 202.505 168.253 202.505 168.253 201.836 167.069 C 200.848 164.913 200.848 164.913 200.848 161.913 C 229 145.656 229 145.656 240.848 138.913 Z"
          fill="#C1C0C5"/>
    <path d="M 203.858 106.494 C 208.106 109.524 210.171 114.815 212.66 119.288 C 213.27 120.343 213.881 121.397 214.51 122.484 C 215.081 123.5 215.653 124.515 216.242 125.562 C 216.766 126.492 217.291 127.422 217.831 128.38 C 218.848 130.913 218.848 130.913 218.681 133.141 C 217.282 136.117 214.682 136.822 211.785 138.163 C 210.68 138.684 209.576 139.205 208.437 139.742 C 207.583 140.128 206.728 140.515 205.848 140.913 C 200.298 132.029 194.991 123.038 189.848 113.913 C 200.253 105.453 200.253 105.453 203.858 106.494 Z"
          fill="#A8A7AD"/>
    <path d="M 392.848 96.913 C 398.128 96.913 403.408 96.913 408.848 96.913 C 408.848 102.193 408.848 107.473 408.848 112.913 C 403.568 112.913 398.288 112.913 392.848 112.913 C 392.848 107.633 392.848 102.353 392.848 96.913 Z"
          fill="#000000"/>
    <path d="M 360.848 80.913 C 366.128 80.913 371.408 80.913 376.848 80.913 C 376.848 86.193 376.848 91.473 376.848 96.913 C 371.568 96.913 366.288 96.913 360.848 96.913 C 360.848 91.633 360.848 86.353 360.848 80.913 Z"
          fill="#000000"/>
    <path d="M 384.848 353.913 C 382.008 356.982 379.249 359.012 375.586 361.015 C 374.559 361.582 373.531 362.149 372.472 362.734 C 371.379 363.329 370.286 363.925 369.161 364.538 C 366.88 365.797 364.6 367.057 362.321 368.319 C 361.208 368.934 360.096 369.549 358.95 370.183 C 354.962 372.407 351.022 374.704 347.098 377.038 C 340.585 380.901 334.041 384.707 327.473 388.476 C 326.562 389.001 325.651 389.526 324.712 390.068 C 323.862 390.554 323.013 391.041 322.137 391.542 C 321.381 391.976 320.625 392.41 319.847 392.857 C 317.848 393.913 317.848 393.913 314.848 394.913 C 315.08 393.084 315.08 393.084 315.848 390.913 C 317.692 389.488 317.692 389.488 320.133 388.171 C 321.044 387.669 321.955 387.168 322.894 386.651 C 323.889 386.119 324.885 385.586 325.911 385.038 C 328.022 383.878 330.133 382.717 332.243 381.554 C 333.335 380.955 334.428 380.356 335.554 379.739 C 340.784 376.84 345.94 373.816 351.098 370.788 C 352.583 369.922 352.583 369.922 354.097 369.038 C 358.905 366.233 363.7 363.408 368.477 360.55 C 369.354 360.03 370.231 359.51 371.134 358.974 C 372.778 357.999 374.417 357.016 376.05 356.024 C 376.774 355.597 377.497 355.17 378.243 354.729 C 378.87 354.352 379.498 353.975 380.144 353.587 C 381.848 352.913 381.848 352.913 384.848 353.913 Z"
          fill="#CDCCCF"/>
    <path d="M 379.848 392.913 C 378.501 396.954 376.735 397.412 373.063 399.487 C 372.487 399.816 371.911 400.145 371.318 400.483 C 369.479 401.531 367.632 402.566 365.786 403.601 C 364.537 404.309 363.289 405.018 362.041 405.727 C 358.982 407.466 355.917 409.192 352.848 410.913 C 352.188 409.923 351.528 408.933 350.848 407.913 C 354.491 405.768 358.139 403.632 361.792 401.504 C 363.034 400.779 364.274 400.052 365.513 399.322 C 367.295 398.273 369.08 397.233 370.868 396.194 C 371.941 395.566 373.015 394.937 374.121 394.29 C 376.848 392.913 376.848 392.913 379.848 392.913 Z"
          fill="#A3A2A8"/>
</svg>